<?xml version="1.0" encoding="UTF-8" standalone="no"?>
<svg
   xmlns:dc="http://purl.org/dc/elements/1.1/"
   xmlns:cc="http://creativecommons.org/ns#"
   xmlns:rdf="http://www.w3.org/1999/02/22-rdf-syntax-ns#"
   xmlns:svg="http://www.w3.org/2000/svg"
   xmlns="http://www.w3.org/2000/svg"
   viewBox="0 0 400 400"
   height="400"
   width="400"
   id="svg2"
   version="1.1">
  <metadata
     id="metadata8">
    <rdf:RDF>
      <cc:Work
         rdf:about="">
        <dc:format>image/svg+xml</dc:format>
        <dc:type
           rdf:resource="http://purl.org/dc/dcmitype/StillImage" />
        <dc:title></dc:title>
      </cc:Work>
    </rdf:RDF>
  </metadata>
  <defs
     id="defs6" />
  <path
     id="path819"
     d="M 0,200 V 0 H 200 400 V 200 400 H 200 0 Z m 205.86904,159.54724 c 9.30346,-2.4762 15.19029,-6.07481 38.71872,-23.6687 28.83244,-21.56006 32.40224,-24.60476 37.92894,-32.34973 6.13754,-8.601 7.34149,-11.61568 15.39584,-38.55109 C 312.6403,215.72507 313.27843,209.73583 311.54797,137 310.7212,102.24865 309.06188,86.193625 305.33417,76.877143 302.0947,68.780926 290.36517,62.250896 267,55.535855 233.19328,45.819961 182.62576,45.661989 133.5,55.118801 c -17.27218,3.324931 -20.08318,6.128032 -18.15458,18.103562 0.85595,5.314946 0.74717,6.050179 -1.20216,8.125139 -4.58226,4.877595 -2.97683,6.020513 16.37583,11.658059 12.13777,3.535805 17.78289,6.118764 27.72546,12.685929 10.78217,7.12175 12.01246,10.55815 6.66847,18.62612 -1.69784,2.56327 -2.93275,5.12321 -2.74423,5.68876 0.18851,0.56554 2.59016,2.72605 5.33698,4.80114 2.74683,2.07508 6.11923,5.77978 7.49423,8.23268 l 2.5,4.45981 0.5,35 c 0.55311,38.71749 0.57606,38.85624 7.24895,43.8102 7.19062,5.33834 15.01589,6.02942 23.77297,2.09947 4.68699,-2.10339 6.16734,-2.37875 7.87505,-1.46481 C 221.67821,229.5037 217.37996,233 209.45295,233 207.00383,233 205,233.38094 205,233.84653 c 0,1.87357 11.77683,14.77257 15.0235,16.45505 2.91038,1.50821 5.43059,1.74765 15.4765,1.47043 8.38136,-0.23128 12.85277,-0.79529 14.82794,-1.87035 C 254.50015,247.63076 269,234.82384 269,233.40965 c 0,-0.66949 -3.2625,-2.59617 -7.25,-4.28152 -9.04148,-3.82145 -6.25689,-4.01887 8.73176,-0.61907 6.03996,1.37002 12.33996,2.48797 14,2.48435 3.91859,-0.009 7.80986,-2.63616 11.66286,-7.87542 4.19315,-5.70181 4.88916,-4.40409 0.93927,1.75129 C 294.18192,229.3916 289.24824,233 285.96695,233 c -1.56073,0 -6.00319,4.71039 -17.23305,18.27243 -4.90598,5.92483 -10.3406,11.54729 -12.07693,12.49434 -2.54155,1.38623 -6.39979,1.78782 -19.79179,2.06 -15.6782,0.31866 -16.60667,0.44577 -16.14523,2.21032 0.36534,1.39705 -0.20377,2.04624 -2.24241,2.5579 -4.03869,1.01365 -57.35989,-0.47183 -76.89724,-2.14229 -9.30583,-0.79565 -17.09995,-1.26638 -17.32027,-1.04606 -0.61927,0.61926 7.56411,5.98715 14.29225,9.375 10.9929,5.53531 17.3883,6.6931 51.36703,9.29924 8.48062,0.65046 16.44988,1.46085 17.70947,1.80088 2.24351,0.60565 2.21015,0.70989 -1.63785,5.11824 -4.92037,5.63687 -5.50656,8.29042 -3.94949,17.87846 1.20056,7.39273 1.10856,8.36083 -2.53212,26.64649 -2.07787,10.43628 -3.99497,19.98755 -4.26021,21.22505 -0.41239,1.92402 -0.067,2.24828 2.38431,2.23813 1.57662,-0.007 5.28265,-0.65493 8.23562,-1.44089 z m 34.97118,-190.62195 c -8.12394,-1.19255 -21.59692,-6.58336 -22.34512,-8.94073 -1.28023,-4.03365 3.86444,-9.04239 13.80185,-13.43718 5.77643,-2.55461 17.05806,-4.93081 16.10741,-3.39264 -0.28552,0.46199 -2.30328,1.12527 -4.48391,1.47397 -6.84919,1.09523 -5.36205,2.37106 2.77053,2.37687 9.56052,0.007 13.06785,0.91619 25.71287,6.66673 6.08584,2.76765 11.99897,4.72019 15.33858,5.06487 3.69612,0.38147 5.6265,1.07306 6.03418,2.16186 0.32969,0.88053 1.30233,2.1779 2.16142,2.88305 1.29029,1.05909 0.41693,1.17238 -5.02117,0.65137 -6.03083,-0.5778 -7.09812,-0.37075 -12.72148,2.46791 -5.96375,3.01049 -6.50182,3.09516 -18.91686,2.97669 -7.02819,-0.0671 -15.32542,-0.49582 -18.4383,-0.95277 z M 207.53451,128.25 c -4.9093,-6.69144 -4.63349,-8.63663 2.1317,-15.03406 10.36065,-9.79745 27.33587,-16.3232 42.83379,-16.466512 15.39825,-0.14239 25.75511,3.558652 34.32698,12.266792 4.76658,4.84236 8.92188,11.56825 7.82475,12.66538 -0.28554,0.28555 -2.2365,-0.85548 -4.33545,-2.53562 -9.20067,-7.36479 -22.41779,-10.3328 -34.78385,-7.811 -6.84667,1.39623 -9.629,2.75453 -23.8085,11.623 C 222.89322,128.48109 214.62215,133 213.34377,133 c -1.61711,0 -3.38469,-1.44528 -5.80926,-4.75 z m -27.88889,221.23112 c 0.32057,-0.83539 -0.36856,-6.81943 -1.53139,-13.29788 -2.42738,-13.52365 -2.58652,-18.39193 -0.91907,-28.11576 1.38564,-8.08046 0.38079,-11.12529 -4.69516,-14.22689 -3.40655,-2.08153 -6.3669,-2.28299 -11.71626,-0.79733 -9.30219,2.58349 -9.07703,5.82938 2.23947,32.28459 4.96277,11.60173 9.69814,22.12412 10.52305,23.3831 1.70372,2.6002 5.22642,3.04501 6.09936,0.77017 z M 150.99239,327.25 c -0.004,-0.4125 -6.57638,-9.3 -14.60487,-19.75 -16.82327,-21.89741 -24.69877,-33.48094 -35.89274,-52.79216 -4.397128,-7.58568 -8.991097,-15.01068 -10.208817,-16.5 -4.681319,-5.72541 -2.357126,1.61478 5.325188,16.81784 8.045149,15.9211 21.051429,36.3851 31.409879,49.42013 11.98491,15.08174 24.00907,26.52045 23.97136,22.80419 z M 202,264.53666 c 0,-1.07313 -12.32257,-16.44647 -13.56486,-16.92318 -1.29439,-0.4967 -6.36099,4.86596 -12.88364,13.63652 l -2.78888,3.75 h 14.61869 C 195.42159,265 202,264.7915 202,264.53666 Z m -68,-17.15324 c 0,-1.24097 0.63896,-1.47847 2.75,-1.02217 13.79775,2.98231 16.313,3.12081 20.07688,1.10548 4.75468,-2.54584 5.37053,-5.78966 1.48511,-7.82244 -3.60772,-1.88748 -8.03406,-6.02477 -12.19033,-11.39429 -1.82714,-2.36049 -4.13636,-4.25 -5.19404,-4.25 -1.04737,0 -5.95956,2.52039 -10.91597,5.60086 -9.84686,6.11995 -10.54049,7.3798 -7.13642,12.962 1.76011,2.88634 7.11402,6.36408 9.87477,6.41437 0.6875,0.0125 1.25,-0.70469 1.25,-1.59381 z m -11.8442,-25.72979 c 6.30776,-1.89836 25.19094,-13.14558 28.61193,-17.04187 2.1294,-2.42526 4.0641,-7.33473 7.56053,-19.18553 2.58436,-8.75942 4.69274,-16.5658 4.68529,-17.34749 -0.0227,-2.3772 -3.17038,-5.07869 -5.91854,-5.07952 -1.42725,-4.3e-4 -7.43228,0.96263 -13.3445,2.14013 -9.61805,1.91557 -10.56535,2.29132 -9,3.56992 1.52478,1.24547 -0.78791,1.35658 -18.00572,0.86508 -18.808157,-0.53689 -19.850841,-0.4683 -21.750001,1.43086 C 93.897655,172.10235 93,173.74001 93,174.64447 c 0,0.90446 2.087494,6.19196 4.638876,11.75 2.551384,5.55804 6.335294,14.67084 8.408694,20.25066 4.71495,12.68863 5.5597,14.25677 8.2678,15.34789 2.93529,1.18265 2.75747,1.19035 7.84043,-0.33939 z M 120,166.21021 c -0.825,-0.34754 -3.525,-1.32451 -6,-2.17105 -4.70502,-1.60928 -5.01966,-2.32828 -3.51803,-8.03916 0.48167,-1.83181 -0.0281,-1.4309 -1.90718,1.5 -1.4105,2.2 -2.56685,4.26916 -2.56967,4.59813 -0.005,0.54349 5.28543,3.04598 8.99488,4.25506 2.28219,0.74387 6.79863,0.61472 5,-0.14298 z m 42,-18.80247 c 0,-3.19405 -4.13142,-11.30116 -7.15101,-14.03247 -1.29195,-1.1686 -5.43201,-4.05018 -9.20014,-6.40352 -5.39958,-3.37224 -7.83613,-4.29448 -11.5,-4.35281 -7.29851,-0.11618 -21.46927,2.37541 -23.39885,4.11413 -3.2002,2.88366 -1.85275,13.20525 1.9234,14.73332 1.00463,0.40654 7.9016,1.08254 15.3266,1.50223 11.26876,0.63695 14.63787,1.21868 20.38464,3.51972 12.36944,4.95279 13.61536,5.03692 13.61536,0.9194 z"
     style="fill:#000000" />
</svg>
