<?xml version="1.0" encoding="UTF-8" standalone="no"?>
<svg
   xmlns:dc="http://purl.org/dc/elements/1.1/"
   xmlns:cc="http://creativecommons.org/ns#"
   xmlns:rdf="http://www.w3.org/1999/02/22-rdf-syntax-ns#"
   xmlns:svg="http://www.w3.org/2000/svg"
   xmlns="http://www.w3.org/2000/svg"
   version="1.1"
   width="240"
   height="240"
   class="mr-3"
   viewBox="0 0 170.95714 172.2"
   data-name="Layer 1"
   id="Layer_1">
  <metadata
     id="metadata47">
    <rdf:RDF>
      <cc:Work
         rdf:about="">
        <dc:format>image/svg+xml</dc:format>
        <dc:type
           rdf:resource="http://purl.org/dc/dcmitype/StillImage" />
        <dc:title>GitHub Package Registry Icon</dc:title>
      </cc:Work>
    </rdf:RDF>
  </metadata>
  <defs
     id="defs4">
    <style
       id="style2">.cls-1{fill:#79b8ff;}.cls-2{fill:#2088ff;}.cls-3{fill:none;}</style>
  </defs>
  <title
     id="title6">GitHub Package Registry Icon</title>
  <path
     style="fill:#ffff00;stroke-width:4.30555296"
     id="path28-7"
     d="M 85.40482,74.902976 A 11.439709,11.3798 0 1 1 73.965111,86.282777 11.439709,11.3798 0 0 1 85.40482,74.902976 Z m 0,14.171073 a 2.8059664,2.7912718 0 1 0 -2.805967,-2.791272 2.8059664,2.7912718 0 0 0 2.805967,2.791272 z"
     class="cls-2" />
  <path
     style="fill:#000080;stroke-width:4.30555296"
     id="path16"
     d="m 85.330099,39.979601 a 4.3168715,4.2942643 0 0 1 2.158436,0.558254 l 36.736575,21.127781 a 4.3168715,4.2942643 0 0 1 2.15844,3.693067 v 42.212617 a 4.3168715,4.2942643 0 0 1 -2.15844,3.73601 l -36.736575,21.08484 a 4.3168715,4.2942643 0 0 1 -4.316872,0 L 46.435087,111.30733 a 4.3168715,4.2942643 0 0 1 -2.158436,-3.73601 V 65.358703 a 4.3168715,4.2942643 0 0 1 2.158436,-3.693067 L 83.171663,40.537855 a 4.3168715,4.2942643 0 0 1 2.158436,-0.558254 z M 117.7498,67.849376 85.330099,49.212269 52.910394,67.849376 v 37.274214 l 32.419705,18.59417 32.419701,-18.59417 z"
     class="cls-2" />
  <path
     style="fill:#800080;stroke-width:4.30555296"
     id="path10"
     d="m 48.636692,61.193267 a 4.3168715,4.2942643 0 0 1 2.158435,0.601197 l 36.779745,20.95601 a 4.3168715,4.2942643 0 0 1 -4.316871,7.429077 L 46.478256,69.223541 a 4.3168715,4.2942643 0 0 1 -1.467736,-5.840199 4.3168715,4.2942643 0 0 1 3.626172,-2.190075 z"
     class="cls-2" />
  <path
     style="fill:#800080;stroke-width:4.30555296"
     id="path12"
     d="m 85.416436,82.149277 v 0 a 4.3168715,4.2942643 0 0 1 4.316872,4.294264 l -0.259012,40.623739 a 4.3168715,4.2942643 0 0 1 -4.316872,4.29427 4.3168715,4.2942643 0 0 1 -4.316871,-4.29427 l 0.259012,-40.580796 a 4.3168715,4.2942643 0 0 1 4.316871,-4.337207 z"
     class="cls-2" />
  <path
     style="fill:#800080;stroke-width:4.30555296"
     id="path14"
     d="m 121.11696,61.837406 a 4.3168715,4.2942643 0 0 1 2.15844,8.030275 L 87.574872,90.179551 A 4.3168715,4.2942643 0 1 1 83.258001,82.750474 L 118.95853,62.395661 a 4.3168715,4.2942643 0 0 1 2.15843,-0.558255 z"
     class="cls-2" />
  <path
     style="fill:#000080;stroke-width:4.30555296"
     id="path18"
     d="m 48.334511,138.74768 a 11.439709,11.379801 0 1 1 -11.439708,11.3798 11.439709,11.379801 0 0 1 11.439708,-11.3798 z m 0,14.17107 a 2.8059664,2.7912718 0 1 0 -2.805967,-2.79127 2.8059664,2.7912718 0 0 0 2.805967,2.70539 z"
     class="cls-2" />
  <path
     style="fill:#000080;stroke-width:4.30555296"
     id="path20"
     d="m 124.18194,138.74768 a 11.439709,11.379801 0 1 1 -11.43971,11.3798 11.439709,11.379801 0 0 1 11.43971,-11.3798 z m 0,14.17107 a 2.8059664,2.7912718 0 1 0 -2.80596,-2.79127 2.8059664,2.7912718 0 0 0 2.80596,2.70539 z"
     class="cls-2" />
  <path
     style="fill:#000080;stroke-width:4.30555296"
     id="path22"
     d="m 47.730149,10.39212 a 11.439709,11.379801 0 1 1 -11.353371,11.3798 11.439709,11.379801 0 0 1 11.353371,-11.3798 z m 0,14.171072 a 2.8059664,2.7912718 0 1 0 -2.805967,-2.791272 2.8491352,2.8342145 0 0 0 2.805967,2.791272 z"
     class="cls-2" />
  <path
     style="fill:#000080;stroke-width:4.30555296"
     id="path24"
     d="m 123.18906,11.122144 a 11.439709,11.379801 0 1 1 -11.43971,11.379801 11.439709,11.379801 0 0 1 11.43971,-11.379801 z m 0,14.171073 a 2.8059664,2.7912718 0 1 0 -2.80596,-2.791272 2.8059664,2.7912718 0 0 0 2.80596,2.834214 z"
     class="cls-2" />
  <path
     style="fill:#000080;fill-opacity:1;stroke-width:4.30555296"
     id="path26"
     d="m 160.61634,74.634314 a 11.439709,11.379801 0 1 1 -11.43971,11.379801 11.439709,11.379801 0 0 1 11.43971,-11.379801 z m 0,14.171073 a 2.8059664,2.7912718 0 1 0 -2.80597,-2.791272 2.8059664,2.7912718 0 0 0 2.80597,2.791272 z"
     class="cls-2" />
  <path
     style="fill:#000080;stroke-width:4.30555296"
     id="path28"
     d="M 11.295755,74.634314 A 11.439709,11.379801 0 1 1 -0.1439536,86.014115 11.439709,11.379801 0 0 1 11.295755,74.634314 Z m 0,14.171073 a 2.8059664,2.7912718 0 1 0 -2.8059656,-2.791272 2.8059664,2.7912718 0 0 0 2.8059656,2.791272 z"
     class="cls-2" />
  <path
     style="fill:none;stroke-width:4.30555296"
     id="path30"
     d="M 53.212575,67.548778"
     class="cls-3" />
  <path
     style="fill:#800080;stroke-width:4.30555296"
     id="path32"
     d="m 74.753764,16.017606 6.561645,-3.73601 v 16.017606 a 4.3168715,4.2942643 0 0 0 8.633742,0 V 12.324538 l 6.863826,3.693068 a 4.3168715,4.2942643 0 0 0 5.870943,-1.545935 4.3168715,4.2942643 0 0 0 -1.55407,-5.883143 L 85.891292,0 70.609568,8.588528 a 4.3168715,4.2942643 0 0 0 -1.554074,5.883143 4.3168715,4.2942643 0 0 0 5.69827,1.545935 z"
     class="cls-1" />
  <path
     style="fill:#000080;stroke-width:4.30555296"
     id="path34"
     d="m 14.792421,64.757506 a 4.3168715,4.2942643 0 0 0 4.316872,-4.294264 v -7.772619 l 14.41835,8.330873 a 4.3168715,4.2942643 0 0 0 5.914114,-1.588878 4.3168715,4.2942643 0 0 0 -1.597242,-5.840199 l -14.11617,-8.11616 6.432139,-3.693067 a 4.3168715,4.2942643 0 0 0 -2.158436,-8.030274 4.3168715,4.2942643 0 0 0 -2.158436,0.601197 l -15.238556,8.588528 v 17.520599 a 4.3168715,4.2942643 0 0 0 4.187365,4.294264 z"
     class="cls-1" />
  <path
     style="fill:#800080;stroke-width:4.30555296"
     id="path36"
     d="m 25.843612,138.01766 a 4.3317392,4.3090542 0 0 0 4.316872,-7.47202 l -6.432139,-3.65013 15.10905,-8.58853 a 4.3168715,4.2942643 0 0 0 -2.158436,-8.03027 4.3168715,4.2942643 0 0 0 -2.158435,0.60119 l -15.411231,8.67442 v -7.81556 a 4.3168715,4.2942643 0 0 0 -8.633743,0 v 17.5206 z"
     class="cls-1" />
  <path
     style="fill:#000080;stroke-width:4.30555296"
     id="path38"
     d="M 70.436893,163.61147 85.718617,172.2 101.12985,163.61147 a 4.3168715,4.2942643 0 0 0 -4.316873,-7.42908 l -6.691151,3.8219 v -14.34284 a 4.3168715,4.2942643 0 0 0 -8.633743,0 v 14.2999 l -6.561644,-3.77896 a 4.3168715,4.2942643 0 0 0 -2.115267,-0.55825 4.3168715,4.2942643 0 0 0 -2.201604,7.98733 z"
     class="cls-1" />
  <path
     style="fill:#800080;stroke-width:4.30555296"
     id="path40"
     d="m 133.29054,118.47875 14.50469,8.58853 -6.56165,3.73601 a 4.3317392,4.3090542 0 0 0 4.31688,7.47202 l 15.23855,-8.58853 v -17.52059 a 4.3168715,4.2942643 0 0 0 -8.63374,0 v 7.2573 l -14.50469,-8.58853 a 4.3168715,4.2942643 0 0 0 -5.91411,1.58888 4.3168715,4.2942643 0 0 0 1.55407,6.05491 z"
     class="cls-1" />
  <path
     style="fill:#000080;stroke-width:4.30555296"
     id="path42"
     d="m 138.51396,60.720898 13.64131,-7.901447 v 7.643791 a 4.3168715,4.2942643 0 1 0 8.63374,0 V 42.985586 l -1.59724,-0.944738 a 5.8277765,5.7972569 0 0 0 -1.12239,-0.64414 l -12.51892,-7.171421 a 4.3168715,4.2942643 0 0 0 -4.31688,7.429077 l 6.56165,3.821895 -13.64131,7.858504 a 4.3168715,4.2942643 0 1 0 4.31687,7.429077 z"
     class="cls-1" />
  <path
     id="path830"
     d="m 26.867134,138.25885 c -0.417161,-0.13273 -4.263508,-2.21536 -8.547438,-4.62805 l -7.788962,-4.3867 0.09533,-9.57254 0.09533,-9.57254 1.074947,-1.11549 c 1.354019,-1.40508 3.035368,-1.75255 4.693327,-0.96992 2.113945,0.99787 2.50009,2.09781 2.50009,7.12151 0,2.43193 0.08521,4.42169 0.189351,4.42169 0.104144,0 3.20478,-1.70305 6.890303,-3.78455 11.015511,-6.2213 11.070588,-6.23838 13.366282,-4.14555 1.091577,0.99511 1.333099,1.47672 1.365971,2.72379 0.02664,1.0117 -0.213624,1.85277 -0.723328,2.5319 -0.445487,0.59355 -3.994102,2.84589 -8.523395,5.40987 -4.268075,2.41611 -7.763012,4.47517 -7.766527,4.5757 -0.0035,0.10053 1.648937,1.13357 3.672116,2.29565 4.114138,2.36309 5.049282,3.54237 4.618858,5.82472 -0.423835,2.2474 -3.116961,3.93725 -5.212262,3.27051 z"
     style="opacity:0;fill:#800080;fill-opacity:1;stroke:#00ffff;stroke-width:0.36651933" />
  <path
     id="path832"
     d="m 26.867134,138.25885 c -0.417161,-0.13273 -4.263508,-2.21536 -8.547438,-4.62805 l -7.788962,-4.3867 0.09533,-9.57254 0.09533,-9.57254 1.074947,-1.11549 c 1.354019,-1.40508 3.035368,-1.75255 4.693327,-0.96992 2.113945,0.99787 2.50009,2.09781 2.50009,7.12151 0,2.43193 0.08521,4.42169 0.189351,4.42169 0.104144,0 3.20478,-1.70305 6.890303,-3.78455 11.015511,-6.2213 11.070588,-6.23838 13.366282,-4.14555 1.091577,0.99511 1.333099,1.47672 1.365971,2.72379 0.02664,1.0117 -0.213624,1.85277 -0.723328,2.5319 -0.445487,0.59355 -3.994102,2.84589 -8.523395,5.40987 -4.268075,2.41611 -7.763012,4.47517 -7.766527,4.5757 -0.0035,0.10053 1.648937,1.13357 3.672116,2.29565 4.114138,2.36309 5.049282,3.54237 4.618858,5.82472 -0.423835,2.2474 -3.116961,3.93725 -5.212262,3.27051 z"
     style="opacity:0;fill:#800080;fill-opacity:1;stroke:#00ffff;stroke-width:0.36651933" />
  <path
     style="fill:#ff2121;fill-opacity:1;stroke-width:1.81598783"
     id="path28-6"
     d="m 85.416436,82.149277 c 4.298931,0 6.451064,5.169998 3.411628,8.193512 -3.039431,3.023519 -8.236647,0.882656 -8.236647,-3.393761 0,-2.650828 2.160236,-4.799751 4.825019,-4.799751 z"
     class="cls-2" />
</svg>
